<svg width="24" height="24" viewBox="0 0 24 24" fill="none" xmlns="http://www.w3.org/2000/svg">
<path d="M21.4866 19.9687C20.0044 17.4075 17.6775 15.6103 14.9738 14.8481C16.2883 14.1799 17.3394 13.0885 17.9577 11.7498C18.576 10.411 18.7255 8.90311 18.3819 7.4691C18.0384 6.03508 17.2218 4.75856 16.064 3.84537C14.9062 2.93218 13.4746 2.43555 12 2.43555C10.5254 2.43555 9.09378 2.93218 7.93597 3.84537C6.77817 4.75856 5.96165 6.03508 5.6181 7.4691C5.27454 8.90311 5.42397 10.411 6.04228 11.7498C6.66058 13.0885 7.71174 14.1799 9.02625 14.8481C6.3225 15.6094 3.99563 17.4065 2.51344 19.9687C2.47274 20.0328 2.44541 20.1043 2.4331 20.1792C2.42079 20.2541 2.42375 20.3306 2.4418 20.4043C2.45984 20.478 2.49261 20.5473 2.53813 20.608C2.58364 20.6687 2.64096 20.7195 2.70664 20.7575C2.77232 20.7955 2.84501 20.8197 2.92032 20.8289C2.99563 20.838 3.07201 20.8319 3.14487 20.8107C3.21773 20.7896 3.28556 20.7539 3.34428 20.7059C3.403 20.6579 3.4514 20.5985 3.48657 20.5312C5.2875 17.4197 8.46938 15.5625 12 15.5625C15.5306 15.5625 18.7125 17.4197 20.5134 20.5312C20.5486 20.5985 20.597 20.6579 20.6557 20.7059C20.7144 20.7539 20.7823 20.7896 20.8551 20.8107C20.928 20.8319 21.0044 20.838 21.0797 20.8289C21.155 20.8197 21.2277 20.7955 21.2934 20.7575C21.359 20.7195 21.4164 20.6687 21.4619 20.608C21.5074 20.5473 21.5402 20.478 21.5582 20.4043C21.5763 20.3306 21.5792 20.2541 21.5669 20.1792C21.5546 20.1043 21.5273 20.0328 21.4866 19.9687ZM6.5625 8.99998C6.5625 7.92455 6.88141 6.87326 7.47889 5.97907C8.07637 5.08488 8.92559 4.38794 9.91916 3.97639C10.9127 3.56484 12.006 3.45716 13.0608 3.66696C14.1156 3.87677 15.0844 4.39464 15.8449 5.15509C16.6053 5.91554 17.1232 6.88441 17.333 7.93918C17.5428 8.99395 17.4352 10.0873 17.0236 11.0808C16.612 12.0744 15.9151 12.9236 15.0209 13.5211C14.1267 14.1186 13.0754 14.4375 12 14.4375C10.5584 14.4357 9.17638 13.8623 8.15703 12.843C7.13768 11.8236 6.56424 10.4416 6.5625 8.99998Z" fill="white"/>
</svg>
