<svg width="28" height="28" viewBox="0 0 28 28" fill="none" xmlns="http://www.w3.org/2000/svg">
<path d="M25.1195 8.49455L11.1195 22.4946C11.0383 22.5759 10.9418 22.6404 10.8356 22.6845C10.7293 22.7285 10.6155 22.7512 10.5005 22.7512C10.3855 22.7512 10.2716 22.7285 10.1654 22.6845C10.0592 22.6404 9.96269 22.5759 9.88142 22.4946L3.75642 16.3695C3.59224 16.2054 3.5 15.9827 3.5 15.7505C3.5 15.5183 3.59224 15.2956 3.75642 15.1314C3.92061 14.9672 4.14329 14.875 4.37549 14.875C4.60768 14.875 4.83036 14.9672 4.99455 15.1314L10.5005 20.6385L23.8814 7.25642C24.0456 7.09224 24.2683 7 24.5005 7C24.7327 7 24.9554 7.09224 25.1195 7.25642C25.2837 7.42061 25.376 7.64329 25.376 7.87549C25.376 8.10768 25.2837 8.33036 25.1195 8.49455Z" fill="white"/>
</svg>
