<svg width="201" height="34" viewBox="0 0 201 34" fill="none" xmlns="http://www.w3.org/2000/svg">
<path d="M74.7195 5.50352V6.19654H69.6264C68.7799 6.19654 68.0937 6.84245 68.0937 7.63915V27.5181H63.911V6.19654H57.2852V5.50352H74.7195Z" fill="#3F3C3C"/>
<path d="M139.119 10.8575L142.398 5.50352V27.5181H138.215V13.7235L132.159 23.6127L129.783 27.5181L129.582 27.2345L129.314 26.7938L121.852 14.6054V27.5181H121.082V5.50352L121.852 6.7632L131.723 22.8884L138.215 12.3065L139.119 10.8575Z" fill="#3F3C3C"/>
<path d="M161.873 23.6444L163.78 27.5181H168.398L166.457 23.6444L166.122 22.9201L157.891 6.35394L157.489 5.50352L155.18 10.1649L148.856 22.9201L148.487 23.6444L146.58 27.5181H147.417L149.357 23.6444H158.898V22.9201H152.102C150.98 22.9201 150.238 21.8222 150.714 20.8657L155.615 11.0151L161.505 22.9201" fill="#3F3C3C"/>
<path d="M90.0112 23.6444L91.9187 27.5181H96.5367L94.5957 23.6444L94.261 22.9201L86.0292 6.35394L85.6276 5.50352L83.3187 10.1649L76.9944 22.9201L76.626 23.6444L74.7188 27.5181H75.5552L77.4961 23.6444H87.0364V22.9201H80.241C79.1187 22.9201 78.377 21.8222 78.8528 20.8657L83.7538 11.0151L89.6433 22.9201" fill="#3F3C3C"/>
<path d="M116.899 5.50352L108.165 18.0384L108.098 18.1328V27.5181H103.949V20.836C103.949 19.7095 103.599 18.6075 102.941 17.6661L94.4453 5.50352H99.4315L107.697 17.3771L115.995 5.50352H116.899Z" fill="#3F3C3C"/>
<path d="M187.907 5.50352H192.057V27.5181H187.907V21.4966C187.907 20.6999 187.221 20.054 186.374 20.054H176.764V27.5181H172.581V5.50352H176.764V17.8871C176.764 18.6839 177.45 19.3298 178.297 19.3298H187.907V5.50352Z" fill="#3F3C3C"/>
<path d="M38.1952 19.6301C37.6465 19.961 36.9087 19.9015 36.429 19.45L33.3064 16.5111L36.429 13.5721C36.9087 13.1206 37.6465 13.0609 38.1952 13.392L41.5092 16.5111L38.1952 19.6301ZM28.1864 29.0503C27.6328 29.5714 26.7351 29.5714 26.1812 29.0503L23.0824 26.1336L30.5706 19.0859L34.6719 22.9459L28.1864 29.0503ZM22.3685 21.6559L16.9022 16.5111L22.3685 11.366L27.8349 16.5111L22.3685 21.6559ZM18.5556 29.0503C18.002 29.5714 17.1043 29.5714 16.5509 29.0503L10.0649 22.9459L14.1662 19.0859L21.6546 26.1336L18.5556 29.0503ZM6.54184 19.6301L3.22788 16.5111L6.54184 13.392C7.09035 13.0609 7.82832 13.1206 8.30806 13.5721L11.4307 16.5111L8.30806 19.45C7.82832 19.9015 7.09035 19.961 6.54184 19.6301ZM16.5509 3.9718C17.1043 3.45071 18.002 3.45071 18.5556 3.9718L21.6546 6.8885L14.1662 13.9362L10.0649 10.076L16.5509 3.9718ZM26.1812 3.9718C26.7351 3.45071 27.6328 3.45071 28.1864 3.9718L34.6719 10.076L30.5706 13.9362L23.0824 6.8885L26.1812 3.9718ZM44.737 14.3992L30.7203 1.20699L29.4381 0.000152588L22.3685 6.65383L22.3819 6.66638L22.3685 6.67893L22.3552 6.66638L22.3685 6.65383L15.299 0.000152588L14.8174 0.45343L0 14.3992L2.24385 16.5111L0 18.6229L14.1372 31.9285L15.299 33.022L22.3685 26.3683L22.3552 26.3557L22.3685 26.3432L22.3819 26.3557L22.3685 26.3683L29.4381 33.022L29.9197 32.5687L30.721 31.8145L44.737 18.6229L42.4932 16.5111L44.737 14.3992Z" fill="#3F3C3C"/>
<path d="M197.99 7.62684H198.492C198.732 7.62684 198.895 7.59316 198.982 7.52601C199.07 7.45865 199.113 7.36949 199.113 7.25875C199.113 7.18743 199.092 7.12359 199.05 7.06723C199.008 7.01065 198.95 6.96882 198.875 6.94086C198.8 6.91335 198.662 6.89948 198.46 6.89948H197.99V7.62684ZM197.577 8.98381V6.57278H198.457C198.758 6.57278 198.975 6.59502 199.11 6.63949C199.245 6.68417 199.352 6.76189 199.432 6.87262C199.512 6.98357 199.552 7.10135 199.552 7.22595C199.552 7.40229 199.485 7.55551 199.351 7.68628C199.218 7.81682 199.041 7.89013 198.82 7.90598C198.91 7.94165 198.983 7.98413 199.037 8.03367C199.14 8.12855 199.267 8.28793 199.416 8.5116L199.728 8.98381H199.224L198.997 8.60362C198.818 8.30489 198.674 8.11776 198.564 8.04247C198.488 7.98722 198.378 7.95948 198.233 7.95948H197.99V8.98381H197.577ZM198.621 5.87492C198.287 5.87492 197.961 5.95571 197.645 6.11708C197.328 6.27845 197.08 6.50894 196.902 6.80878C196.723 7.10862 196.634 7.421 196.634 7.74572C196.634 8.06823 196.721 8.37753 196.897 8.67341C197.072 8.9695 197.318 9.2 197.634 9.36533C197.949 9.53066 198.278 9.61321 198.621 9.61321C198.964 9.61321 199.293 9.53066 199.608 9.36533C199.924 9.2 200.169 8.9695 200.344 8.67341C200.518 8.37753 200.605 8.06823 200.605 7.74572C200.605 7.421 200.516 7.10862 200.339 6.80878C200.161 6.50894 199.913 6.27845 199.596 6.11708C199.278 5.95571 198.953 5.87492 198.621 5.87492ZM198.621 5.50398C199.021 5.50398 199.411 5.6004 199.792 5.79347C200.172 5.98631 200.469 6.2626 200.681 6.62165C200.893 6.98093 201 7.35562 201 7.74572C201 8.13163 200.895 8.5028 200.686 8.85899C200.476 9.21541 200.183 9.49213 199.806 9.68894C199.428 9.88597 199.033 9.98438 198.621 9.98438C198.209 9.98438 197.814 9.88597 197.436 9.68894C197.059 9.49213 196.765 9.21541 196.555 8.85899C196.344 8.5028 196.239 8.13163 196.239 7.74572C196.239 7.35562 196.346 6.98093 196.559 6.62165C196.773 6.2626 197.07 5.98631 197.451 5.79347C197.831 5.6004 198.221 5.50398 198.621 5.50398Z" fill="#3F3C3C"/>
</svg>
