<svg width="18" height="18" viewBox="0 0 18 18" fill="none" xmlns="http://www.w3.org/2000/svg">
<path d="M2.8125 6.18752H5.13281C5.25673 6.6715 5.53821 7.10048 5.93286 7.40681C6.32752 7.71315 6.8129 7.87943 7.3125 7.87943C7.8121 7.87943 8.29748 7.71315 8.69214 7.40681C9.08679 7.10048 9.36827 6.6715 9.49219 6.18752H15.1875C15.3367 6.18752 15.4798 6.12825 15.5852 6.02276C15.6907 5.91728 15.75 5.7742 15.75 5.62502C15.75 5.47583 15.6907 5.33276 15.5852 5.22727C15.4798 5.12178 15.3367 5.06252 15.1875 5.06252H9.49219C9.36827 4.57853 9.08679 4.14956 8.69214 3.84322C8.29748 3.53688 7.8121 3.37061 7.3125 3.37061C6.8129 3.37061 6.32752 3.53688 5.93286 3.84322C5.53821 4.14956 5.25673 4.57853 5.13281 5.06252H2.8125C2.66332 5.06252 2.52024 5.12178 2.41475 5.22727C2.30926 5.33276 2.25 5.47583 2.25 5.62502C2.25 5.7742 2.30926 5.91728 2.41475 6.02276C2.52024 6.12825 2.66332 6.18752 2.8125 6.18752ZM7.3125 4.50002C7.535 4.50002 7.75251 4.566 7.93752 4.68961C8.12252 4.81323 8.26672 4.98893 8.35186 5.1945C8.43701 5.40007 8.45929 5.62627 8.41588 5.84449C8.37248 6.06272 8.26533 6.26318 8.108 6.42051C7.95066 6.57785 7.75021 6.68499 7.53198 6.7284C7.31375 6.77181 7.08755 6.74953 6.88198 6.66438C6.67641 6.57923 6.50071 6.43504 6.3771 6.25003C6.25348 6.06503 6.1875 5.84752 6.1875 5.62502C6.1875 5.32665 6.30603 5.0405 6.517 4.82952C6.72798 4.61854 7.01413 4.50002 7.3125 4.50002ZM15.1875 11.8125H13.9922C13.8683 11.3285 13.5868 10.8996 13.1921 10.5932C12.7975 10.2869 12.3121 10.1206 11.8125 10.1206C11.3129 10.1206 10.8275 10.2869 10.4329 10.5932C10.0382 10.8996 9.75673 11.3285 9.63281 11.8125H2.8125C2.66332 11.8125 2.52024 11.8718 2.41475 11.9773C2.30926 12.0828 2.25 12.2258 2.25 12.375C2.25 12.5242 2.30926 12.6673 2.41475 12.7728C2.52024 12.8783 2.66332 12.9375 2.8125 12.9375H9.63281C9.75673 13.4215 10.0382 13.8505 10.4329 14.1568C10.8275 14.4632 11.3129 14.6294 11.8125 14.6294C12.3121 14.6294 12.7975 14.4632 13.1921 14.1568C13.5868 13.8505 13.8683 13.4215 13.9922 12.9375H15.1875C15.3367 12.9375 15.4798 12.8783 15.5852 12.7728C15.6907 12.6673 15.75 12.5242 15.75 12.375C15.75 12.2258 15.6907 12.0828 15.5852 11.9773C15.4798 11.8718 15.3367 11.8125 15.1875 11.8125ZM11.8125 13.5C11.59 13.5 11.3725 13.434 11.1875 13.3104C11.0025 13.1868 10.8583 13.0111 10.7731 12.8055C10.688 12.6 10.6657 12.3738 10.7091 12.1555C10.7525 11.9373 10.8597 11.7369 11.017 11.5795C11.1743 11.4222 11.3748 11.315 11.593 11.2716C11.8113 11.2282 12.0375 11.2505 12.243 11.3357C12.4486 11.4208 12.6243 11.565 12.7479 11.75C12.8715 11.935 12.9375 12.1525 12.9375 12.375C12.9375 12.6734 12.819 12.9595 12.608 13.1705C12.397 13.3815 12.1109 13.5 11.8125 13.5Z" fill="black"/>
</svg>
