<svg width="76" height="56" viewBox="0 0 76 56" fill="none" xmlns="http://www.w3.org/2000/svg">
<path d="M64.8866 33.2894C63.9544 33.8505 62.7011 33.7497 61.8862 32.984L56.5814 28L61.8862 23.016C62.7011 22.2503 63.9544 22.1491 64.8866 22.7106L70.5164 28L64.8866 33.2894ZM47.8836 49.2647C46.943 50.1484 45.4179 50.1484 44.477 49.2647L39.2127 44.3184L51.9339 32.3665L58.9012 38.9125L47.8836 49.2647ZM38 36.7248L28.7137 28L38 19.2748L47.2863 28L38 36.7248ZM31.5226 49.2647C30.5821 50.1484 29.057 50.1484 28.1168 49.2647L17.0984 38.9125L24.0658 32.3665L36.7873 44.3184L31.5226 49.2647ZM11.1134 33.2894L5.48358 28L11.1134 22.7106C12.0452 22.1491 13.2989 22.2503 14.1139 23.016L19.4186 28L14.1139 32.984C13.2989 33.7497 12.0452 33.8505 11.1134 33.2894ZM28.1168 6.73531C29.057 5.85163 30.5821 5.85163 31.5226 6.73531L36.7873 11.6816L24.0658 23.6335L17.0984 17.0871L28.1168 6.73531ZM44.477 6.73531C45.4179 5.85163 46.943 5.85163 47.8836 6.73531L58.9012 17.0871L51.9339 23.6335L39.2127 11.6816L44.477 6.73531ZM76 24.4186L52.1882 2.04661L50.0098 0L38 11.2836L38.0227 11.3049L38 11.3262L37.9774 11.3049L38 11.2836L25.9902 0L25.172 0.768688L0 24.4186L3.81188 28L0 31.5814L24.0165 54.1457L25.9902 56L38 44.7164L37.9774 44.6951L38 44.6738L38.0227 44.6951L38 44.7164L50.0098 56L50.828 55.2313L52.1894 53.9523L76 31.5814L72.1881 28L76 24.4186Z" fill="#fc3d9d"/>
</svg>
